# xmcd
#
# Track frame offsets:
#	150
#	14440
#	32432
#	59362
#	82090
#	100045
#	125642
#	142165
#	162057
#	185625
#	206237
#	231109
#	252395
#
# Disc length: 3533 seconds
#
# Revision: 0
# Processed by: cddbd v1.4PL0 Copyright (c) Steve Scherf et al.
# Submitted via: EasyCDDAExtractor 4.5.0.2
#
DISCID=b80dcb0d
DTITLE=Velliaria - Ambiciosamente Futurista
DYEAR=2001
DGENRE=Blues
TTITLE0=Vou Pousar Este Avião Pela Contra Mão
TTITLE1=Overdose de Rock (Over´n Roll)
TTITLE2=Medo
TTITLE3=Vou Pintar Um Quadro
TTITLE4=Ambiciosamente Futurista
TTITLE5=Ve m
TTITLE6=Betine
TTITLE7=Não Perco Tempo
TTITLE8=Primata
TTITLE9=Não Fique Triste
TTITLE10=A Louca
TTITLE11=Boca do Lixo
TTITLE12=Faixa Bônus
EXTD=
EXTT0=
EXTT1=
EXTT2=
EXTT3=
EXTT4=
EXTT5=
EXTT6=
EXTT7=
EXTT8=
EXTT9=
EXTT10=
EXTT11=
EXTT12=
PLAYORDER=
